# xmcd
#
# Track frame offsets: 
#        150
#        9547
#        25087
#        37650
#        52182
#        63130
#        72767
#        95917
#        114297
#        126552
#        139972
#        158025
#        171080
#        192859
#        204755
#        213859
#        229355
#
# Disc length: 3245 seconds
#
# Revision: 0
# Processed by: cddbd v1.4PL0 Copyright (c) Steve Scherf et al.
# Submitted via: ExactAudioCopy v0.95a3
#
DISCID=e80cab11
DTITLE=Istanbul Blues Kumpanyasi - Kökler
DYEAR=1997
DGENRE=Blues
TTITLE0=Alleuia
TTITLE1=God Put The Rainbow in the Sky
TTITLE2=Chanson de Mardi Gras
TTITLE3=Black Coffee Blues
TTITLE4=Sea Line Woman
TTITLE5=Early Morning Blues
TTITLE6=Blues on Fridays
TTITLE7=Sleep Deep Blues
TTITLE8=Grassfunk no:8
TTITLE9=Jesus met the Woman at the Well
TTITLE10=Workin' Power
TTITLE11=Loner
TTITLE12=Whiskey Jar Blues
TTITLE13=Pick a Bale of CottonBlack Mule Rag
TTITLE14=Black Mule Rag
TTITLE15=Ma Right Mind
TTITLE16=Freedom Birds of Africa
EXTD=
EXTT0=
EXTT1=
EXTT2=
EXTT3=
EXTT4=
EXTT5=
EXTT6=
EXTT7=
EXTT8=
EXTT9=
EXTT10=
EXTT11=
EXTT12=
EXTT13=
EXTT14=
EXTT15=
EXTT16=
PLAYORDER=
